<svg xmlns="http://www.w3.org/2000/svg" version="1.1" xmlns:xlink="http://www.w3.org/1999/xlink" xmlns:svgjs="http://svgjs.com/svgjs" width="1440" height="560" preserveAspectRatio="none" viewBox="0 0 1440 560"><g mask="url(&quot;#SvgjsMask1034&quot;)" fill="none"><path d="M91.204,489.772C107.82,489.836,120.248,476.815,129.026,462.707C138.499,447.482,147.113,429.284,138.688,413.456C129.917,396.977,109.864,391.117,91.204,391.651C73.549,392.156,56.443,400.421,48.204,416.044C40.418,430.808,45.476,447.999,53.885,462.417C62.213,476.697,74.673,489.708,91.204,489.772" fill="rgba(28, 83, 142, 0.34)" class="triangle-float2"></path><path d="M280.389,228.47C330.063,227.364,378.018,209.837,406.001,168.78C438.187,121.556,455.784,60.943,428.968,10.476C400.829,-42.48,340.204,-71.901,280.389,-67.619C226.554,-63.765,190.967,-17.688,164.589,29.4C139.001,75.078,118.38,129.338,144.706,174.595C170.932,219.679,228.245,229.631,280.389,228.47" fill="rgba(28, 83, 142, 0.34)" class="triangle-float3"></path><path d="M3.461,355.62C26.113,354.245,39.768,332.695,50.091,312.485C59.252,294.549,64.117,273.797,54.209,256.263C44.163,238.485,23.872,230.579,3.461,229.969C-18.266,229.32,-41.004,234.824,-52.828,253.064C-65.607,272.778,-65.433,298.217,-54.129,318.813C-42.38,340.219,-20.912,357.1,3.461,355.62" fill="rgba(28, 83, 142, 0.34)" class="triangle-float1"></path><path d="M559.423,226.828C589.66,225.702,604.664,193.362,619.189,166.818C632.867,141.824,647.29,114.379,635.032,88.659C621.328,59.906,591.274,41.626,559.423,41.418C527.231,41.208,496.994,59.129,482.086,87.662C468.117,114.397,476.763,145.21,491.415,171.576C506.621,198.94,528.14,227.993,559.423,226.828" fill="rgba(28, 83, 142, 0.34)" class="triangle-float1"></path><path d="M1006.221,572.829C1026.92,571.032,1041.706,555.573,1052.797,538.004C1065.003,518.669,1078.601,495.723,1067.526,475.718C1056.265,455.376,1029.472,453.828,1006.221,453.871C983.075,453.914,958.238,456.747,945.31,475.946C931.021,497.166,929.54,525.865,943.157,547.523C956.078,568.076,982.035,574.929,1006.221,572.829" fill="rgba(28, 83, 142, 0.34)" class="triangle-float3"></path><path d="M1270.354,162.776C1305.444,161.131,1329.765,131.302,1346.279,100.297C1361.602,71.528,1367.12,38.192,1352.125,9.251C1335.883,-22.096,1305.657,-45.898,1270.354,-46.237C1234.538,-46.581,1203.764,-23.343,1185.815,7.653C1167.821,38.726,1163.829,76.514,1181.012,108.043C1198.924,140.911,1232.963,164.529,1270.354,162.776" fill="rgba(28, 83, 142, 0.34)" class="triangle-float2"></path><path d="M1345.954,298.021C1400.381,297.378,1442.024,253.945,1467.1,205.634C1490.045,161.428,1489.371,110.352,1466.266,66.229C1441.17,18.304,1399.978,-22.881,1345.954,-25.717C1287.399,-28.791,1229.388,0.714,1201.579,52.336C1174.931,101.803,1191.284,160.111,1219.751,208.554C1247.752,256.204,1290.69,298.673,1345.954,298.021" fill="rgba(28, 83, 142, 0.34)" class="triangle-float3"></path><path d="M1018.22,365.971C1069.521,366.081,1124.887,355.607,1151.081,311.498C1177.688,266.694,1164.78,210.286,1136.766,166.348C1110.961,125.874,1066.214,102.291,1018.22,103.113C971.655,103.911,931.46,130.97,906.507,170.293C879.311,213.15,861.18,266.848,886.346,310.928C911.658,355.264,967.167,365.861,1018.22,365.971" fill="rgba(28, 83, 142, 0.34)" class="triangle-float2"></path><path d="M628.596,496.309C648.076,495.852,668.003,489.364,677.626,472.421C687.154,455.646,681.976,435.565,672.704,418.647C662.962,400.873,648.822,384.276,628.596,382.964C606.302,381.517,584.512,392.865,573.318,412.199C562.102,431.57,563.119,456.112,575.413,474.818C586.668,491.944,608.109,496.79,628.596,496.309" fill="rgba(28, 83, 142, 0.34)" class="triangle-float2"></path><path d="M919.275,484.552C954.18,483.407,981.407,457.63,998.36,427.097C1014.741,397.595,1019.108,362.725,1003.544,332.784C986.703,300.387,955.788,274.979,919.275,274.959C882.734,274.939,852.755,300.84,834.849,332.693C817.344,363.834,813.304,401.374,830.662,432.597C848.494,464.672,882.596,485.755,919.275,484.552" fill="rgba(28, 83, 142, 0.34)" class="triangle-float3"></path><path d="M1107.805,387.063C1122.134,385.989,1134.864,379.075,1142.668,367.01C1151.316,353.64,1157.325,336.678,1149.283,322.935C1141.293,309.281,1123.594,306.447,1107.805,307.431C1093.893,308.298,1082.324,316.127,1074.406,327.599C1064.879,341.402,1054.322,358.396,1062.535,373.019C1070.828,387.783,1090.918,388.329,1107.805,387.063" fill="rgba(28, 83, 142, 0.34)" class="triangle-float1"></path><path d="M889.816,249.417C926.657,248.433,958.434,225.96,976.844,194.034C995.236,162.14,1000.321,122.488,981.128,91.07C962.598,60.738,925.305,49.599,889.816,51.573C857.825,53.352,831.973,73.444,814.55,100.333C795.001,130.502,778.144,166.817,794.346,198.908C811.736,233.354,851.243,250.447,889.816,249.417" fill="rgba(28, 83, 142, 0.34)" class="triangle-float3"></path><path d="M1495.52,401.148C1553.965,404.648,1608.142,370.086,1637.615,319.495C1667.29,268.557,1671.647,203.722,1639.213,154.496C1609.264,109.042,1549.943,104.923,1495.52,103.835C1438.239,102.69,1370.121,98.902,1341.516,148.542C1312.93,198.149,1350.329,255.191,1380.132,304.076C1408.175,350.074,1441.744,397.928,1495.52,401.148" fill="rgba(28, 83, 142, 0.34)" class="triangle-float1"></path><path d="M228.879,584.106C248.927,583.015,264.223,567.676,273.41,549.823C281.759,533.599,281.691,514.689,272.802,498.755C263.665,482.376,247.624,470.604,228.879,470.002C209.08,469.366,190.362,479.02,179.783,495.768C168.413,513.769,164.737,536.565,175.08,555.175C185.682,574.251,207.087,585.292,228.879,584.106" fill="rgba(28, 83, 142, 0.34)" class="triangle-float3"></path><path d="M560.778,268.99C595.429,269.291,629.02,251.499,644.892,220.696C659.706,191.946,650.156,157.759,631.82,131.117C615.985,108.108,588.676,99.844,560.778,98.477C529.428,96.941,494.137,97.504,476.563,123.511C457.404,151.863,462.018,189.64,479.161,219.254C496.268,248.806,526.633,268.693,560.778,268.99" fill="rgba(28, 83, 142, 0.34)" class="triangle-float1"></path><path d="M226.625,555.668C242.738,554.639,256.602,545.423,264.837,531.535C273.261,517.328,275.724,500.169,268.27,485.429C260.046,469.165,244.847,455.645,226.625,455.969C208.808,456.286,196.511,471.511,187.47,486.867C178.248,502.532,169.917,521.223,178.908,537.022C187.961,552.929,208.359,556.835,226.625,555.668" fill="rgba(28, 83, 142, 0.34)" class="triangle-float3"></path><path d="M465.242,422.618C510.882,425.68,560.736,415.308,584.601,376.284C609.247,335.984,597.21,285.721,574.188,244.472C550.441,201.923,513.932,164.319,465.242,162.421C413.661,160.41,362.617,188.712,340.519,235.363C320.617,277.379,344.963,323.242,370.735,361.936C392.978,395.331,425.207,419.932,465.242,422.618" fill="rgba(28, 83, 142, 0.34)" class="triangle-float1"></path><path d="M862.85,376.864C905.709,380.603,954.371,380.142,978.927,344.816C1006.136,305.673,1001.884,252.573,977.877,211.388C954.043,170.5,910.034,142.006,862.85,145.681C820.212,149.002,793.407,188.493,775.167,227.175C759.92,259.511,759.182,296.372,777.251,327.219C795.12,357.724,827.631,373.791,862.85,376.864" fill="rgba(28, 83, 142, 0.34)" class="triangle-float1"></path><path d="M499.416,235.261C541.061,237.19,574.362,203.511,593.786,166.622C611.808,132.395,613.084,91.149,592.566,58.357C573.159,27.339,535.989,16.871,499.416,15.795C460.306,14.644,415.454,18.485,396.259,52.58C377.265,86.32,400.022,124.816,419.06,158.531C438.578,193.096,459.763,233.425,499.416,235.261" fill="rgba(28, 83, 142, 0.34)" class="triangle-float1"></path></g><defs><mask id="SvgjsMask1034"><rect width="1440" height="560" fill="#ffffff"></rect></mask><style>
            @keyframes float1 {
                0%{transform: translate(0, 0)}
                50%{transform: translate(-10px, 0)}
                100%{transform: translate(0, 0)}
            }

            .triangle-float1 {
                animation: float1 5s infinite;
            }

            @keyframes float2 {
                0%{transform: translate(0, 0)}
                50%{transform: translate(-5px, -5px)}
                100%{transform: translate(0, 0)}
            }

            .triangle-float2 {
                animation: float2 4s infinite;
            }

            @keyframes float3 {
                0%{transform: translate(0, 0)}
                50%{transform: translate(0, -10px)}
                100%{transform: translate(0, 0)}
            }

            .triangle-float3 {
                animation: float3 6s infinite;
            }
        </style></defs></svg>