<svg xmlns="http://www.w3.org/2000/svg" version="1.1" xmlns:xlink="http://www.w3.org/1999/xlink" xmlns:svgjs="http://svgjs.com/svgjs" width="1440" height="560" preserveAspectRatio="none" viewBox="0 0 1440 560"><g mask="url(&quot;#SvgjsMask1012&quot;)" fill="none"><path d="M385.938,491.537C423.721,491.28,455.728,467.34,475.347,435.048C495.874,401.262,506.844,359.272,487.105,325.019C467.345,290.73,425.429,277.322,385.938,279.898C350.74,282.194,323.13,306.437,305.311,336.878C287.263,367.71,277.884,404.598,294.399,436.278C312.058,470.152,347.738,491.797,385.938,491.537" fill="rgba(163, 163, 108, 0.85)" class="triangle-float3"></path><path d="M527.815,259.518C581.031,261.022,621.189,216.483,646.801,169.812C671.277,125.212,680.516,71.699,655.058,27.652C629.618,-16.365,578.649,-36.835,527.815,-36.059C478.419,-35.304,430.633,-12.014,407.131,31.439C384.597,73.102,397.782,121.533,419.935,163.4C444.078,209.027,476.215,258.06,527.815,259.518" fill="rgba(163, 163, 108, 0.85)" class="triangle-float1"></path><path d="M473.978,279.424C496.599,278.477,514.507,262.859,526.139,243.434C538.176,223.333,546.287,198.624,534.48,178.388C522.738,158.263,497.273,154.534,473.978,154.037C449.457,153.514,422.072,155.059,408.837,175.709C394.842,197.544,399.87,226.179,413.664,248.141C426.575,268.697,449.725,280.439,473.978,279.424" fill="rgba(163, 163, 108, 0.85)" class="triangle-float2"></path><path d="M292.051,452.206C323.771,454.256,355.061,435.561,368.55,406.779C380.631,381.002,364.854,353.424,349.617,329.377C335.84,307.635,317.774,286.983,292.051,286.053C264.931,285.073,239.808,301.122,226.797,324.938C214.281,347.847,219.043,374.657,230.953,397.887C244.279,423.877,262.905,450.323,292.051,452.206" fill="rgba(163, 163, 108, 0.85)" class="triangle-float3"></path><path d="M379.148,146.277C403.417,146.251,425.165,130.376,435.575,108.453C444.781,89.067,436.165,67.736,425.206,49.284C414.56,31.359,399.993,13.784,379.148,13.45C357.871,13.11,341.352,29.484,330.465,47.768C319.257,66.593,312.804,88.934,322.511,108.575C333.281,130.367,354.84,146.303,379.148,146.277" fill="rgba(163, 163, 108, 0.85)" class="triangle-float3"></path><path d="M1152.023,2.398C1168.348,3.602,1184.315,-4.441,1192.839,-18.415C1201.714,-32.964,1202.757,-51.602,1193.811,-66.107C1185.241,-80.002,1168.317,-85.595,1152.023,-84.591C1137.438,-83.693,1125.023,-74.426,1118.292,-61.455C1112.077,-49.479,1114.15,-35.683,1120.452,-23.753C1127.293,-10.803,1137.417,1.321,1152.023,2.398" fill="rgba(163, 163, 108, 0.85)" class="triangle-float2"></path><path d="M445.525,294.81C499.79,292.507,531.153,238.784,556.212,190.596C578.758,147.241,594.679,97.003,570.461,54.559C546.077,11.823,494.703,-1.823,445.525,-3.394C392.644,-5.083,334.1,1.309,305.953,46.109C276.485,93.011,290.168,152.431,317.276,200.735C345.086,250.289,388.752,297.219,445.525,294.81" fill="rgba(163, 163, 108, 0.85)" class="triangle-float3"></path><path d="M408.116,704.216C449.117,705.301,491.01,690.124,511.693,654.706C532.525,619.033,527.474,573.583,504.416,539.307C483.729,508.557,445.153,499.408,408.116,500.741C373.763,501.978,341.554,516.819,323.119,545.833C303.18,577.213,296.038,616.703,313.619,649.463C332.069,683.843,369.112,703.184,408.116,704.216" fill="rgba(163, 163, 108, 0.85)" class="triangle-float1"></path><path d="M664.98,389.869C699.405,388.701,735.113,380.719,753.46,351.567C772.889,320.695,773.056,280.159,753.343,249.467C734.946,220.824,699,215.03,664.98,213.812C627.797,212.48,586.07,212.102,564.929,242.719C541.538,276.595,542.309,323.901,565.456,357.944C586.452,388.823,627.66,391.135,664.98,389.869" fill="rgba(163, 163, 108, 0.85)" class="triangle-float1"></path><path d="M85.492,528.706C132.771,525.777,168.434,491.545,192.924,450.997C218.529,408.603,237.857,358.13,215.077,314.154C190.831,267.348,138.204,243.942,85.492,243.602C32.139,243.257,-19.595,266.7,-47.026,312.462C-75.211,359.482,-76.408,419.163,-47.764,465.905C-20.265,510.779,32.963,531.96,85.492,528.706" fill="rgba(163, 163, 108, 0.85)" class="triangle-float2"></path><path d="M1025.56,423.034C1049.176,423.434,1069.893,408.26,1081.392,387.629C1092.582,367.554,1093.882,342.434,1081.153,323.298C1069.489,305.762,1046.585,302.453,1025.56,303.691C1007.01,304.783,990.288,313.597,980.257,329.239C969.258,346.39,964.046,367.446,972.908,385.793C982.929,406.54,1002.523,422.644,1025.56,423.034" fill="rgba(163, 163, 108, 0.85)" class="triangle-float1"></path><path d="M137.216,564.541C159.636,564.666,181.923,556.826,194.073,537.983C207.271,517.514,209.636,491.45,198.215,469.939C186.082,447.085,163.087,431.355,137.216,430.892C110.566,430.415,84.682,444.075,72.314,467.686C60.666,489.923,67.473,516.501,81.447,537.355C93.786,555.769,115.05,564.417,137.216,564.541" fill="rgba(163, 163, 108, 0.85)" class="triangle-float1"></path><path d="M1387.957,364.16C1403.323,365.185,1420.504,361.8,1428.072,348.388C1435.559,335.12,1428.966,319.108,1420.541,306.415C1413.141,295.267,1401.316,288.695,1387.957,287.953C1372.945,287.119,1355.897,289.357,1348.436,302.41C1341.008,315.405,1348.084,330.983,1356.153,343.59C1363.448,354.987,1374.455,363.259,1387.957,364.16" fill="rgba(163, 163, 108, 0.85)" class="triangle-float3"></path><path d="M836.709,514.922C873.543,512.873,899.661,484.31,919.494,453.204C941.578,418.566,967.11,377.548,947.209,341.611C926.99,305.101,878.395,301.684,836.709,303.714C799.294,305.536,763.344,319.828,743.4,351.536C722.08,385.433,716.416,428.621,736.275,463.394C756.275,498.414,796.442,517.162,836.709,514.922" fill="rgba(163, 163, 108, 0.85)" class="triangle-float2"></path><path d="M238.962,214.343C271.899,216.128,304.634,202.632,322.416,174.851C341.624,144.842,346.3,105.835,327.977,75.277C310.077,45.425,273.736,34.158,238.962,35.673C206.943,37.068,177.407,54.15,162.441,82.49C148.357,109.159,154.691,140.5,169.829,166.584C184.897,192.548,208.986,212.719,238.962,214.343" fill="rgba(163, 163, 108, 0.85)" class="triangle-float1"></path><path d="M288.903,665.106C319.784,662.604,341.98,638.663,357.217,611.687C372.136,585.273,380.543,554.321,366.732,527.311C351.754,498.017,321.803,477.813,288.903,478.083C256.412,478.35,230.351,500.94,213.257,528.572C194.997,558.089,181.465,594.202,198.286,624.563C215.474,655.587,253.552,667.97,288.903,665.106" fill="rgba(163, 163, 108, 0.85)" class="triangle-float2"></path><path d="M816.133,200.412C831.106,199.865,844.63,192.012,852.264,179.119C860.053,165.964,861.523,149.704,854.055,136.364C846.422,122.731,831.755,114.801,816.133,114.584C800.111,114.362,784.678,121.601,776.344,135.287C767.672,149.528,766.425,167.711,775.118,181.939C783.497,195.653,800.073,200.999,816.133,200.412" fill="rgba(163, 163, 108, 0.85)" class="triangle-float1"></path><path d="M1082.159,370.768C1129.137,368.909,1176.98,354.835,1201.112,314.486C1225.808,273.195,1220.373,221.566,1196.313,179.901C1172.257,138.242,1130.187,111.235,1082.159,108.491C1028.507,105.426,971.626,119.988,942.933,165.426C912.566,213.515,913.777,277.522,945.694,324.596C974.578,367.196,1030.73,372.804,1082.159,370.768" fill="rgba(163, 163, 108, 0.85)" class="triangle-float2"></path><path d="M1440.358,521.696C1480.368,520.112,1517.483,499.828,1536.934,464.829C1555.861,430.772,1552.543,389.285,1532.52,355.861C1513.069,323.392,1478.202,304.215,1440.358,303.616C1401.384,302.999,1364.334,320.238,1343,352.861C1319.355,389.018,1307.984,435.61,1329.565,473.036C1351.161,510.488,1397.16,523.406,1440.358,521.696" fill="rgba(163, 163, 108, 0.85)" class="triangle-float2"></path></g><defs><mask id="SvgjsMask1012"><rect width="1440" height="560" fill="#ffffff"></rect></mask><style>
            @keyframes float1 {
                0%{transform: translate(0, 0)}
                50%{transform: translate(-10px, 0)}
                100%{transform: translate(0, 0)}
            }

            .triangle-float1 {
                animation: float1 5s infinite;
            }

            @keyframes float2 {
                0%{transform: translate(0, 0)}
                50%{transform: translate(-5px, -5px)}
                100%{transform: translate(0, 0)}
            }

            .triangle-float2 {
                animation: float2 4s infinite;
            }

            @keyframes float3 {
                0%{transform: translate(0, 0)}
                50%{transform: translate(0, -10px)}
                100%{transform: translate(0, 0)}
            }

            .triangle-float3 {
                animation: float3 6s infinite;
            }
        </style></defs></svg>