<svg xmlns="http://www.w3.org/2000/svg" version="1.1" xmlns:xlink="http://www.w3.org/1999/xlink" xmlns:svgjs="http://svgjs.com/svgjs" width="1440" height="560" preserveAspectRatio="none" viewBox="0 0 1440 560"><g mask="url(&quot;#SvgjsMask1030&quot;)" fill="none"><path d="M1379.755,546.37C1409.388,546.089,1441.842,541.667,1457.029,516.22C1472.486,490.321,1462.992,458.375,1447.834,432.3C1432.772,406.39,1409.725,383.12,1379.755,383.289C1350.004,383.456,1328.184,407.481,1312.989,433.059C1297.36,459.369,1284.367,491.344,1299.902,517.709C1315.289,543.823,1349.446,546.657,1379.755,546.37" fill="rgba(255, 255, 255, 0.85)" class="triangle-float1"></path><path d="M490.73,254.733C524.688,254.249,553.109,233.28,571.626,204.812C592.404,172.869,608.196,134.191,591.379,99.997C572.931,62.485,532.441,37.559,490.73,40.324C452.469,42.86,428.218,77.799,410.814,111.967C395.353,142.32,389.098,177.453,405.737,207.177C422.733,237.539,455.939,255.229,490.73,254.733" fill="rgba(255, 255, 255, 0.85)" class="triangle-float3"></path><path d="M1032.41,189.227C1080.353,192.457,1128.141,171.214,1153.301,130.275C1179.605,87.475,1181.567,32.341,1155.054,-10.33C1129.79,-50.991,1080.216,-66.776,1032.41,-64.293C989.011,-62.039,950.399,-37.02,930.009,1.357C910.811,37.492,917.204,79.758,936.787,115.686C957.413,153.528,989.409,186.33,1032.41,189.227" fill="rgba(255, 255, 255, 0.85)" class="triangle-float2"></path><path d="M621.611,569.771C640.984,569.337,656.946,556.101,666.407,539.19C675.622,522.719,677.485,502.859,668.256,486.397C658.83,469.584,640.886,459.375,621.611,459.285C602.178,459.194,584.084,469.223,574.204,485.957C564.154,502.979,563.469,524.071,573.201,541.276C583.081,558.744,601.547,570.22,621.611,569.771" fill="rgba(255, 255, 255, 0.85)" class="triangle-float2"></path><path d="M455.107,645.766C503.661,648.881,543.212,610.758,567.203,568.43C590.815,526.771,598.502,476.215,574.79,434.613C550.874,392.654,503.239,367.791,455.107,371.765C412.27,375.302,384.228,413.277,365.374,451.904C349.141,485.16,349.885,521.904,365.43,555.487C384.527,596.744,409.738,642.856,455.107,645.766" fill="rgba(255, 255, 255, 0.85)" class="triangle-float3"></path><path d="M796.889,102.381C822.088,103.587,844.209,86.954,856.889,65.144C869.64,43.21,873.067,15.807,859.788,-5.811C847.009,-26.615,821.272,-33.791,796.889,-32.534C774.798,-31.396,754.96,-19.241,744.299,0.14C734.015,18.836,736.318,40.864,746.078,59.839C756.908,80.893,773.24,101.249,796.889,102.381" fill="rgba(255, 255, 255, 0.85)" class="triangle-float3"></path><path d="M1230.369,191.895C1273.135,192.988,1316.004,178.129,1339.35,142.281C1364.892,103.062,1371.016,52.201,1347.819,11.551C1324.445,-29.408,1277.52,-47.804,1230.369,-48.692C1181.37,-49.615,1128.195,-36.192,1104.999,6.979C1082.599,48.67,1104.067,97.775,1130.626,136.948C1153.457,170.622,1189.698,190.856,1230.369,191.895" fill="rgba(255, 255, 255, 0.85)" class="triangle-float3"></path><path d="M1088.783,470.926C1125.902,468.061,1154.135,441.794,1173.181,409.806C1192.804,376.849,1204.831,338.218,1188.448,303.537C1169.651,263.746,1132.777,232.263,1088.783,231.146C1043.12,229.987,1002.574,258.562,979.948,298.243C957.542,337.538,954.219,386.577,978.337,424.845C1001.134,461.015,1046.155,474.216,1088.783,470.926" fill="rgba(255, 255, 255, 0.85)" class="triangle-float1"></path><path d="M981.98,549.671C1033.283,546.036,1066.28,501.887,1092.862,457.857C1120.774,411.623,1150.623,358.728,1126.399,310.459C1100.428,258.709,1039.796,233.774,981.98,236.914C929.038,239.789,889.477,279.215,862.396,324.797C834.548,371.672,814.476,427.628,840.076,475.767C866.914,526.236,924.962,553.711,981.98,549.671" fill="rgba(255, 255, 255, 0.85)" class="triangle-float2"></path><path d="M682.844,712.863C743.291,712.609,805.348,689.716,833.756,636.359C860.908,585.362,840.978,524.478,808.63,476.608C780.438,434.888,733.192,412.429,682.844,413.035C633.623,413.627,589.922,438.9,562.193,479.572C529.718,527.206,503.234,586.43,529.717,637.638C557.717,691.778,621.893,713.119,682.844,712.863" fill="rgba(255, 255, 255, 0.85)" class="triangle-float2"></path><path d="M126.184,300.924C168.081,300.947,208.683,279.976,228.051,242.824C246.24,207.933,232.962,167.796,213.374,133.671C193.674,99.352,165.718,67.08,126.184,65.363C84.116,63.536,45.751,88.95,24.808,125.481C3.978,161.816,3.558,206.448,24.512,242.711C45.453,278.952,84.328,300.901,126.184,300.924" fill="rgba(255, 255, 255, 0.85)" class="triangle-float1"></path><path d="M147.475,478.195C200.967,475.871,250.302,451.477,278.934,406.234C309.849,357.383,326.261,293.788,294.919,245.21C265.185,199.126,202.284,200.513,147.475,202.486C97.344,204.29,46.306,214.248,17.338,255.202C-16.694,303.316,-35.083,367.688,-5.378,418.587C24.166,469.212,88.915,480.739,147.475,478.195" fill="rgba(255, 255, 255, 0.85)" class="triangle-float3"></path></g><defs><mask id="SvgjsMask1030"><rect width="1440" height="560" fill="#ffffff"></rect></mask><style>
            @keyframes float1 {
                0%{transform: translate(0, 0)}
                50%{transform: translate(-10px, 0)}
                100%{transform: translate(0, 0)}
            }

            .triangle-float1 {
                animation: float1 5s infinite;
            }

            @keyframes float2 {
                0%{transform: translate(0, 0)}
                50%{transform: translate(-5px, -5px)}
                100%{transform: translate(0, 0)}
            }

            .triangle-float2 {
                animation: float2 4s infinite;
            }

            @keyframes float3 {
                0%{transform: translate(0, 0)}
                50%{transform: translate(0, -10px)}
                100%{transform: translate(0, 0)}
            }

            .triangle-float3 {
                animation: float3 6s infinite;
            }
        </style></defs></svg>