<svg xmlns="http://www.w3.org/2000/svg" version="1.1" xmlns:xlink="http://www.w3.org/1999/xlink" xmlns:svgjs="http://svgjs.com/svgjs" width="1440" height="560" preserveAspectRatio="none" viewBox="0 0 1440 560"><g mask="url(&quot;#SvgjsMask1006&quot;)" fill="none"><path d="M83.907,439.445C111.252,438.71,129.397,413.436,141.368,388.839C151.675,367.662,151.313,343.905,140.618,322.921C128.687,299.511,110.114,277.984,83.907,276.095C54.699,273.989,25.001,287.851,11.011,313.577C-2.492,338.408,6.669,367.619,20.834,392.078C34.957,416.464,55.737,440.202,83.907,439.445" fill="rgba(163, 108, 154, 0.34)" class="triangle-float1"></path><path d="M1332.061,392.471C1376.525,394.127,1429.851,399.139,1452.524,360.854C1475.39,322.243,1447.455,276.434,1423.098,238.745C1401.486,205.304,1371.836,176.29,1332.061,174.453C1289.142,172.471,1247.158,192.678,1225.193,229.604C1202.759,267.318,1202.12,315.738,1226.194,352.427C1248.379,386.236,1291.651,390.966,1332.061,392.471" fill="rgba(163, 108, 154, 0.34)" class="triangle-float2"></path><path d="M257.268,258.365C316.37,261.148,373.011,228.311,401.071,176.221C427.886,126.442,417.828,65.644,386.403,18.639C358.333,-23.347,307.772,-38.582,257.268,-38.877C206.116,-39.176,151.899,-26.696,125.49,17.113C98.394,62.062,109.992,117.639,135.151,163.7C161.613,212.146,202.127,255.769,257.268,258.365" fill="rgba(163, 108, 154, 0.34)" class="triangle-float2"></path><path d="M1258.865,308.341C1297.705,311.394,1340.868,300.495,1359.471,266.263C1377.56,232.977,1359.294,193.842,1338.185,162.384C1319.927,135.175,1291.595,117.888,1258.865,116.335C1222.861,114.627,1183.014,122.769,1165.345,154.185C1147.898,185.207,1163.912,221.912,1182.373,252.342C1199.94,281.299,1225.1,305.687,1258.865,308.341" fill="rgba(163, 108, 154, 0.34)" class="triangle-float2"></path><path d="M1079.919,278.635C1137.321,280.243,1194.152,258.252,1225.253,209.979C1259.043,157.533,1267.005,90.093,1236.431,35.709C1205.312,-19.645,1143.421,-48.441,1079.919,-48.539C1016.234,-48.637,952.212,-21.14,922.567,35.224C894.474,88.637,915.269,151.534,948.032,202.216C977.596,247.949,1025.483,277.11,1079.919,278.635" fill="rgba(163, 108, 154, 0.34)" class="triangle-float1"></path><path d="M1300.843,297.118C1333.063,294.828,1350.991,263.018,1365.959,234.394C1379.468,208.56,1390.514,178.69,1375.991,153.412C1361.429,128.066,1330.056,122.066,1300.843,121.054C1269.108,119.955,1233.837,121.534,1216.105,147.876C1196.736,176.649,1200.317,214.788,1217.443,244.95C1234.796,275.512,1265.786,299.61,1300.843,297.118" fill="rgba(163, 108, 154, 0.34)" class="triangle-float2"></path><path d="M171.86,424.413C207.124,426.161,243.455,410.92,260.01,379.735C275.812,349.968,262.023,315.701,245.018,286.605C228.222,257.866,205.146,229.173,171.86,228.906C138.25,228.637,112.144,255.592,96.643,285.415C82.428,312.765,82.981,344.578,97.651,371.687C113.13,400.29,139.377,422.803,171.86,424.413" fill="rgba(163, 108, 154, 0.34)" class="triangle-float3"></path><path d="M714.698,450.901C756.833,448.414,791.578,423.025,814.394,387.515C839.706,348.12,858.473,300.858,838.233,258.632C815.58,211.372,767.107,179.584,714.698,179.524C662.195,179.464,616.098,212.413,590.669,258.347C566.049,302.82,564.773,357.886,592.3,400.621C617.899,440.364,667.506,453.686,714.698,450.901" fill="rgba(163, 108, 154, 0.34)" class="triangle-float3"></path><path d="M351.935,354.794C383.56,356.399,408.7,331.422,424.593,304.033C440.558,276.519,447.854,243.418,432.832,215.378C417.05,185.919,385.324,166.972,351.935,168.408C320.59,169.756,295.665,193.49,282.255,221.854C270.663,246.372,278.425,273.236,291.015,297.256C304.913,323.772,322.035,353.277,351.935,354.794" fill="rgba(163, 108, 154, 0.34)" class="triangle-float3"></path><path d="M220.775,191.618C241.77,192.111,255.729,172.502,266.178,154.285C276.557,136.19,284.481,115.325,275.267,96.61C265.085,75.931,243.764,60.386,220.775,62.067C199.646,63.612,187.45,84.466,178.531,103.682C171.228,119.417,171.41,136.599,178.922,152.235C187.813,170.742,200.249,191.136,220.775,191.618" fill="rgba(163, 108, 154, 0.34)" class="triangle-float3"></path><path d="M1090.333,394.441C1134.521,390.61,1170.038,361.77,1192.054,323.266C1213.882,285.091,1222.571,238.961,1201.216,200.519C1179.313,161.09,1135.409,141.756,1090.333,140.156C1041.863,138.435,992.065,151.936,964.922,192.131C934.455,237.248,923.985,297.747,952.668,344.018C980.265,388.536,1038.151,398.965,1090.333,394.441" fill="rgba(163, 108, 154, 0.34)" class="triangle-float3"></path><path d="M659.936,460.744C719.234,461.298,784.226,453.15,815.458,402.74C847.932,350.326,833.322,284.042,802.5,230.64C771.669,177.223,721.563,130.831,659.936,133.283C601.192,135.62,564.663,190.062,535.752,241.252C507.5,291.275,481.081,349.876,509.371,399.878C537.942,450.377,601.918,460.202,659.936,460.744" fill="rgba(163, 108, 154, 0.34)" class="triangle-float1"></path><path d="M124.338,560.094C175.328,561.945,232.061,551.091,256.678,506.398C280.767,462.663,257.388,410.682,229.411,369.327C205.331,333.733,167.251,313.074,124.338,310.777C76.284,308.205,23.309,316.129,-2.207,356.93C-28.874,399.572,-18.937,454.669,7.653,497.359C32.677,537.534,77.038,558.377,124.338,560.094" fill="rgba(163, 108, 154, 0.34)" class="triangle-float2"></path><path d="M1173.396,381.983C1229.73,385.864,1293.448,377.733,1322.396,329.249C1351.812,279.981,1333.002,217.048,1299.824,170.231C1271.645,130.467,1222.117,117.788,1173.396,118.996C1127.191,120.142,1081.478,136.802,1057.384,176.244C1032.303,217.303,1032.533,268.998,1056.165,310.907C1080.222,353.571,1124.533,378.617,1173.396,381.983" fill="rgba(163, 108, 154, 0.34)" class="triangle-float2"></path><path d="M634.066,636.456C662.405,635.495,688.787,621.882,703.192,597.458C717.832,572.635,719.984,541.196,704.634,516.805C690.102,493.714,661.348,487.4,634.066,487.621C607.267,487.838,580.477,495.742,565.45,517.932C548.422,543.077,541.095,576.158,556.31,602.44C571.501,628.681,603.762,637.484,634.066,636.456" fill="rgba(163, 108, 154, 0.34)" class="triangle-float3"></path><path d="M358.203,244.944C400.114,246.906,436.278,217.638,456.696,180.984C476.543,145.357,479.673,101.012,457.421,66.836C436.77,35.12,396.044,29.035,358.203,29.715C321.884,30.368,283.354,38.962,264.976,70.295C246.431,101.914,257.22,140.119,274.481,172.456C293.112,207.359,318.682,243.094,358.203,244.944" fill="rgba(163, 108, 154, 0.34)" class="triangle-float3"></path><path d="M865.065,411.979C924.142,413.577,974.765,370.786,1001.12,317.889C1024.867,270.225,1013.103,215.353,985.814,169.624C959.324,125.233,916.754,89.179,865.065,89.899C814.382,90.605,774.791,128.693,750.003,172.907C725.852,215.985,719.771,266.359,741.188,310.859C765.964,362.337,807.956,410.434,865.065,411.979" fill="rgba(163, 108, 154, 0.34)" class="triangle-float2"></path><path d="M795.808,494.572C813.308,495.003,832.456,493.642,842.328,479.186C853.282,463.146,854.055,441.094,843.436,424.83C833.566,409.712,813.859,407.558,795.808,407.934C778.614,408.292,760.545,412.12,751.498,426.746C742.051,442.019,743.274,461.953,753.096,476.988C762.121,490.803,779.311,494.166,795.808,494.572" fill="rgba(163, 108, 154, 0.34)" class="triangle-float3"></path><path d="M1329.287,539.558C1345.647,539.739,1364.081,539.895,1373.106,526.248C1382.803,511.584,1380.266,491.781,1370.587,477.105C1361.78,463.751,1345.281,460.105,1329.287,459.808C1312.583,459.498,1294.287,461.472,1285.242,475.519C1275.608,490.481,1277.037,510.632,1287.121,525.294C1296.133,538.397,1313.385,539.382,1329.287,539.558" fill="rgba(163, 108, 154, 0.34)" class="triangle-float2"></path></g><defs><mask id="SvgjsMask1006"><rect width="1440" height="560" fill="#ffffff"></rect></mask><style>
            @keyframes float1 {
                0%{transform: translate(0, 0)}
                50%{transform: translate(-10px, 0)}
                100%{transform: translate(0, 0)}
            }

            .triangle-float1 {
                animation: float1 5s infinite;
            }

            @keyframes float2 {
                0%{transform: translate(0, 0)}
                50%{transform: translate(-5px, -5px)}
                100%{transform: translate(0, 0)}
            }

            .triangle-float2 {
                animation: float2 4s infinite;
            }

            @keyframes float3 {
                0%{transform: translate(0, 0)}
                50%{transform: translate(0, -10px)}
                100%{transform: translate(0, 0)}
            }

            .triangle-float3 {
                animation: float3 6s infinite;
            }
        </style></defs></svg>