<svg xmlns="http://www.w3.org/2000/svg" version="1.1" xmlns:xlink="http://www.w3.org/1999/xlink" xmlns:svgjs="http://svgjs.com/svgjs" width="1440" height="560" preserveAspectRatio="none" viewBox="0 0 1440 560"><g mask="url(&quot;#SvgjsMask1014&quot;)" fill="none"><path d="M577.738,378.976C615.029,378.072,653.509,367.56,672.7,335.573C692.365,302.795,687.669,261.407,667.901,228.691C648.827,197.124,614.62,178.348,577.738,178.412C540.969,178.476,507.883,198.001,488.114,229.003C466.56,262.803,453.891,305.965,474.455,340.377C494.662,374.191,538.358,379.93,577.738,378.976" fill="rgba(255, 255, 255, 0.85)" class="triangle-float1"></path><path d="M1235.104,668.304C1280.874,666.876,1320.432,637.902,1341.921,597.465C1362.113,559.469,1359.463,513.652,1336.693,477.142C1315.207,442.69,1275.659,428.17,1235.104,426.19C1189.833,423.98,1139.91,428.608,1114.748,466.307C1087.336,507.377,1090.81,562.091,1116.084,604.51C1140.779,645.956,1186.882,669.808,1235.104,668.304" fill="rgba(255, 255, 255, 0.85)" class="triangle-float2"></path><path d="M563.854,144.247C602.51,143.728,644.006,139.553,665.633,107.51C689.577,72.034,690.755,24.902,669.466,-12.228C648.073,-49.539,606.774,-72.778,563.854,-70.005C524.761,-67.48,499.437,-33.676,479.497,0.044C459.041,34.637,436.938,75.618,457.23,110.307C477.415,144.813,523.882,144.783,563.854,144.247" fill="rgba(255, 255, 255, 0.85)" class="triangle-float1"></path><path d="M117.949,606.076C160.733,605.755,202.76,587.094,223.629,549.744C244.058,513.181,235.824,469.036,214.735,432.85C193.818,396.958,159.49,368.726,117.949,368.409C75.923,368.088,40.004,395.203,18.571,431.354C-3.355,468.337,-11.771,513.979,9.485,551.351C30.943,589.078,74.547,606.402,117.949,606.076" fill="rgba(255, 255, 255, 0.85)" class="triangle-float1"></path><path d="M-10.338,496.104C8.16,496.81,23.015,482.453,32.035,466.288C40.794,450.591,42.762,431.91,34.347,416.025C25.371,399.083,8.822,385.604,-10.338,386.306C-28.628,386.976,-41.736,402.621,-49.688,419.105C-56.55,433.33,-54.646,449.192,-47.459,463.256C-39.4,479.025,-28.034,495.429,-10.338,496.104" fill="rgba(255, 255, 255, 0.85)" class="triangle-float2"></path><path d="M320.903,334.908C354.611,335.311,391.035,330.503,409.429,302.254C429.231,271.843,427.767,231.311,408.302,200.683C390.06,171.979,354.909,162.409,320.903,162.954C288.022,163.481,255.529,175.444,238.222,203.407C220.022,232.813,217.565,270.902,235.972,300.178C253.421,327.93,288.123,334.516,320.903,334.908" fill="rgba(255, 255, 255, 0.85)" class="triangle-float1"></path><path d="M1367.65,272.891C1404.799,274.266,1442.209,257.316,1459.8,224.568C1476.658,193.186,1464.43,156.622,1446.705,125.722C1428.867,94.625,1403.5,63.768,1367.65,63.919C1331.973,64.069,1306.331,94.799,1289.736,126.381C1274.475,155.424,1271.198,189.19,1286.602,218.157C1303.007,249.006,1332.734,271.599,1367.65,272.891" fill="rgba(255, 255, 255, 0.85)" class="triangle-float3"></path><path d="M720.017,257.687C772.824,260.013,830.086,246.41,856.529,200.642C882.982,154.857,866.829,98.023,837.804,53.823C811.786,14.201,767.418,-7.335,720.017,-7.244C672.789,-7.154,627.176,13.696,603.009,54.273C578.293,95.771,578.775,147.601,602.859,189.469C627.009,231.454,671.629,255.556,720.017,257.687" fill="rgba(255, 255, 255, 0.85)" class="triangle-float1"></path><path d="M127.596,91.711C146.603,91.138,165.557,83.432,174.574,66.69C183.22,50.637,177.834,31.61,168.356,16.034C159.322,1.188,144.973,-10.264,127.596,-10.515C109.811,-10.772,94.437,-0.087,84.74,14.824C73.904,31.486,65.767,52.316,75.444,69.677C85.292,87.345,107.378,92.32,127.596,91.711" fill="rgba(255, 255, 255, 0.85)" class="triangle-float1"></path><path d="M1076.497,182.993C1096.291,182.992,1113.782,171.103,1123.687,153.966C1133.601,136.813,1134.376,116.154,1125.315,98.535C1115.372,79.2,1098.239,62.108,1076.497,62.2C1054.869,62.291,1038.279,79.711,1028.387,98.944C1019.395,116.428,1019.532,136.906,1029.299,153.969C1039.133,171.149,1056.702,182.994,1076.497,182.993" fill="rgba(255, 255, 255, 0.85)" class="triangle-float3"></path><path d="M324.821,222.161C362.651,222.279,387.401,187.248,406.208,154.424C424.867,121.858,440.798,83.795,423.044,50.726C404.577,16.329,363.853,1.986,324.821,2.83C287.347,3.641,251.321,21.743,233.693,54.822C216.947,86.246,227.277,122.65,244.306,153.921C262.34,187.036,287.114,222.044,324.821,222.161" fill="rgba(255, 255, 255, 0.85)" class="triangle-float1"></path><path d="M934.503,22.802C948.948,22.018,963.583,18.726,971.666,6.729C980.758,-6.766,984.465,-24.793,975.886,-38.62C967.624,-51.936,950.161,-53.81,934.503,-53.165C920.22,-52.577,906.81,-47.162,898.633,-35.437C888.93,-21.523,880.733,-3.262,889.629,11.181C898.314,25.282,917.966,23.699,934.503,22.802" fill="rgba(255, 255, 255, 0.85)" class="triangle-float3"></path><path d="M799.903,325.908C817.785,325.32,828.267,307.63,836.544,291.768C844.02,277.44,848.283,261.298,841.195,246.774C833.19,230.37,818.156,216.679,799.903,216.686C781.659,216.693,767.196,230.678,758.666,246.805C750.728,261.812,750.99,279.268,758.838,294.322C767.394,310.735,781.404,326.516,799.903,325.908" fill="rgba(255, 255, 255, 0.85)" class="triangle-float2"></path><path d="M1291.968,484.506C1326.383,484.484,1360.535,471.06,1378.167,441.505C1396.202,411.276,1395.948,372.263,1376.394,342.994C1358.577,316.325,1324.014,311.151,1291.968,312.477C1262.705,313.688,1235.119,325.171,1218.834,349.514C1200.35,377.145,1189.745,412.385,1205.58,441.614C1221.994,471.911,1257.51,484.528,1291.968,484.506" fill="rgba(255, 255, 255, 0.85)" class="triangle-float1"></path><path d="M728.09,313.644C790.64,316.073,847.162,277.961,878.495,223.77C909.864,169.517,912.314,102.933,881.465,48.383C850.14,-7.01,791.618,-45.913,728.09,-42.193C669.398,-38.756,629.897,12.431,602.96,64.69C578.69,111.775,572.854,165.495,596.643,212.825C623.222,265.705,668.951,311.347,728.09,313.644" fill="rgba(255, 255, 255, 0.85)" class="triangle-float1"></path><path d="M829.485,144.893C862.258,145.079,888.161,121.067,905.165,93.049C922.996,63.67,935.254,27.962,918.748,-2.182C901.748,-33.227,864.826,-47.112,829.485,-45.163C797.317,-43.389,771.104,-21.538,755.791,6.807C741.29,33.648,740.91,65.285,755.274,92.2C770.584,120.887,796.969,144.709,829.485,144.893" fill="rgba(255, 255, 255, 0.85)" class="triangle-float2"></path><path d="M264.276,731.639C309.775,732.109,340.824,690.044,361.705,649.617C380.574,613.085,387.145,569.901,366.044,534.611C345.419,500.118,304.456,485.84,264.276,486.677C225.688,487.481,189.062,505.375,169.597,538.703C149.968,572.312,153.123,612.7,170.269,647.641C190.111,688.075,219.238,731.174,264.276,731.639" fill="rgba(255, 255, 255, 0.85)" class="triangle-float3"></path><path d="M639.157,106.798C668.628,109.022,701.484,106.503,718.099,82.06C736.375,55.173,733.905,19.319,717.825,-8.936C701.566,-37.505,671.98,-58.432,639.157,-56.651C608.621,-54.994,587.097,-28.769,574.009,-1.13C562.879,22.374,565.025,49.26,578.464,71.524C591.425,92.996,614.148,104.911,639.157,106.798" fill="rgba(255, 255, 255, 0.85)" class="triangle-float2"></path><path d="M464.703,297.847C526.39,299.836,588.801,271.373,617.124,216.536C643.74,165.005,618.365,106.79,589.309,56.594C560.331,6.532,522.505,-44.584,464.703,-46.786C403.997,-49.099,351.211,-7.104,322.487,46.427C295.306,97.082,300.101,157.19,328.404,207.227C357.194,258.124,406.258,295.963,464.703,297.847" fill="rgba(255, 255, 255, 0.85)" class="triangle-float1"></path></g><defs><mask id="SvgjsMask1014"><rect width="1440" height="560" fill="#ffffff"></rect></mask><style>
            @keyframes float1 {
                0%{transform: translate(0, 0)}
                50%{transform: translate(-10px, 0)}
                100%{transform: translate(0, 0)}
            }

            .triangle-float1 {
                animation: float1 5s infinite;
            }

            @keyframes float2 {
                0%{transform: translate(0, 0)}
                50%{transform: translate(-5px, -5px)}
                100%{transform: translate(0, 0)}
            }

            .triangle-float2 {
                animation: float2 4s infinite;
            }

            @keyframes float3 {
                0%{transform: translate(0, 0)}
                50%{transform: translate(0, -10px)}
                100%{transform: translate(0, 0)}
            }

            .triangle-float3 {
                animation: float3 6s infinite;
            }
        </style></defs></svg>