<svg xmlns="http://www.w3.org/2000/svg" version="1.1" xmlns:xlink="http://www.w3.org/1999/xlink" xmlns:svgjs="http://svgjs.com/svgjs" width="1440" height="560" preserveAspectRatio="none" viewBox="0 0 1440 560"><g mask="url(&quot;#SvgjsMask1004&quot;)" fill="none"><path d="M579.926,334.293C595.189,335.254,611.816,332.618,620.218,319.84C629.314,306.006,629.086,287.272,619.899,273.499C611.498,260.905,595.062,259.118,579.926,259.439C565.523,259.744,550.009,262.67,542.783,275.133C535.541,287.624,539.88,303.036,547.558,315.265C554.691,326.626,566.539,333.45,579.926,334.293" fill="rgba(150, 163, 108, 0.34)" class="triangle-float3"></path><path d="M1317.137,336.679C1345.107,336.588,1372.74,324.461,1386.301,299.998C1399.515,276.161,1394.565,246.782,1379.599,224.004C1366.066,203.408,1341.756,195.842,1317.137,194.735C1289.798,193.506,1259.229,195.091,1244.128,217.915C1227.846,242.523,1231.739,275.312,1247.192,300.449C1261.93,324.423,1288.995,336.77,1317.137,336.679" fill="rgba(150, 163, 108, 0.34)" class="triangle-float1"></path><path d="M145.491,580.094C169.314,580.754,191.897,568.056,203.565,547.276C215.008,526.896,213.032,501.723,200.615,481.921C188.943,463.308,167.46,454.921,145.491,454.667C122.994,454.406,99.53,461.233,88.109,480.618C76.547,500.242,81.357,524.474,92.738,544.204C104.128,563.949,122.705,579.462,145.491,580.094" fill="rgba(150, 163, 108, 0.34)" class="triangle-float3"></path><path d="M206.389,226.807C256.806,229.089,305.675,203.825,330.927,160.128C356.196,116.402,353.751,61.403,326.573,18.838C301.26,-20.806,253.422,-35.438,206.389,-34.915C160.429,-34.404,113.706,-18.357,90.748,21.461C67.809,61.246,77.425,109.658,99.96,149.673C123.002,190.59,159.478,224.683,206.389,226.807" fill="rgba(150, 163, 108, 0.34)" class="triangle-float3"></path><path d="M357.378,683.734C404.861,684.732,442.154,645.655,462.958,602.961C481.241,565.441,472.899,523.464,453.478,486.52C432.215,446.071,403.068,402.916,357.378,402.113C310.83,401.295,276.04,441.385,255.24,483.035C236.77,520.02,240.464,561.836,259.214,598.679C280.261,640.036,310.984,682.759,357.378,683.734" fill="rgba(150, 163, 108, 0.34)" class="triangle-float2"></path><path d="M1073.017,327.563C1109.658,329.444,1145.49,312.003,1164.293,280.499C1183.546,248.242,1182.746,207.826,1163.865,175.35C1145.082,143.043,1110.31,121.102,1073.017,123.505C1038.891,125.704,1016.065,155.477,1000.416,185.884C986.342,213.232,982.624,244.519,996.651,271.891C1012.049,301.939,1039.298,325.832,1073.017,327.563" fill="rgba(150, 163, 108, 0.34)" class="triangle-float2"></path><path d="M355.016,377.917C392.637,378.285,429.464,362.208,448.739,329.898C468.465,296.832,466.709,255.756,447.951,222.131C428.675,187.577,394.557,163.341,355.016,161.893C312.862,160.35,269.686,177.829,249.497,214.866C229.968,250.691,242.25,293.839,264.418,328.094C284.487,359.106,318.079,377.555,355.016,377.917" fill="rgba(150, 163, 108, 0.34)" class="triangle-float1"></path><path d="M1021.101,61.616C1044.18,61.295,1059.658,40.229,1070.304,19.75C1079.963,1.169,1082.6,-20.03,1073.296,-38.792C1062.793,-59.973,1044.738,-79.938,1021.101,-79.473C997.958,-79.018,982.912,-57.401,972.345,-36.807C962.881,-18.361,960.27,2.574,969.473,21.151C979.876,42.151,997.667,61.942,1021.101,61.616" fill="rgba(150, 163, 108, 0.34)" class="triangle-float1"></path><path d="M1387.032,183.686C1417.901,183.239,1444.765,164.015,1459.766,137.032C1474.33,110.835,1475.842,78.333,1459.61,53.136C1444.487,29.661,1414.953,23.717,1387.032,24.129C1360.01,24.528,1333.035,32.72,1318.076,55.227C1301.405,80.31,1296.31,112.657,1310.555,139.193C1325.505,167.044,1355.425,184.144,1387.032,183.686" fill="rgba(150, 163, 108, 0.34)" class="triangle-float3"></path><path d="M1074.322,396.348C1128.072,394.519,1171.585,357.711,1198.378,311.079C1225.058,264.645,1238.338,206.516,1209.216,161.574C1181.771,119.22,1124.693,116.485,1074.322,119.63C1030.575,122.361,990.807,140.807,965.755,176.774C935.82,219.751,911.51,273.102,934.724,320.052C959.916,371.001,1017.518,398.281,1074.322,396.348" fill="rgba(150, 163, 108, 0.34)" class="triangle-float1"></path><path d="M933.273,576.418C964.837,578.526,998.144,566.59,1013.489,538.927C1028.499,511.868,1019.017,478.749,1001.665,453.129C986.483,430.713,960.332,421.382,933.273,420.491C904.147,419.532,871.311,423.19,856.61,448.353C841.828,473.655,854.639,504.182,869.69,529.324C884.209,553.578,905.068,574.534,933.273,576.418" fill="rgba(150, 163, 108, 0.34)" class="triangle-float1"></path><path d="M1002.098,40.793C1020.574,40.808,1040.26,37.013,1050.006,21.316C1060.191,4.912,1056.743,-15.613,1047.718,-32.683C1037.95,-51.159,1022.994,-69.663,1002.098,-69.299C981.576,-68.941,968.731,-49.291,959.152,-31.138C950.382,-14.518,944.689,5.105,954.322,21.24C963.776,37.075,983.655,40.778,1002.098,40.793" fill="rgba(150, 163, 108, 0.34)" class="triangle-float1"></path><path d="M1418.05,464.624C1474.105,467.445,1525.899,431.03,1550.906,380.783C1573.66,335.062,1555.531,283.674,1530.165,239.349C1504.573,194.63,1469.463,152.02,1418.05,148.633C1361.277,144.893,1302.802,171.938,1277.057,222.676C1253.01,270.067,1279.739,322.568,1306.496,368.484C1332.986,413.942,1365.503,461.98,1418.05,464.624" fill="rgba(150, 163, 108, 0.34)" class="triangle-float1"></path><path d="M1178.433,613.173C1217.68,614.232,1260.743,607.057,1280.852,573.337C1301.308,539.035,1289.302,496.297,1268.441,462.24C1248.648,429.927,1216.314,407.088,1178.433,406.134C1138.847,405.137,1099.978,423.186,1080.213,457.499C1060.478,491.76,1064.065,534.617,1085.163,568.056C1104.915,599.362,1141.43,612.174,1178.433,613.173" fill="rgba(150, 163, 108, 0.34)" class="triangle-float1"></path><path d="M115.342,550.245C131.623,550.221,148.27,543.741,155.825,529.319C162.985,515.651,156.281,500.127,148.612,486.738C140.879,473.238,130.89,459.193,115.342,458.641C99.096,458.064,85.814,470.128,77.714,484.222C69.646,498.26,66.636,515.371,74.653,529.438C82.737,543.623,99.015,550.269,115.342,550.245" fill="rgba(150, 163, 108, 0.34)" class="triangle-float2"></path><path d="M461.659,595.898C508.777,591.481,537.42,549.028,560.505,507.715C582.808,467.802,603.537,421.517,581.478,381.468C558.88,340.441,508.486,327.184,461.659,328.254C416.943,329.276,376.124,349.756,350.962,386.735C321.711,429.722,300.165,483.886,324.487,529.842C349.93,577.917,407.503,600.975,461.659,595.898" fill="rgba(150, 163, 108, 0.34)" class="triangle-float2"></path><path d="M1330.426,575.591C1380.823,572.104,1421.553,539.336,1447.149,495.784C1473.161,451.525,1483.232,399.243,1461.369,352.794C1435.833,298.539,1390.389,247.466,1330.426,247.795C1270.824,248.122,1230.977,302.161,1201.95,354.218C1173.908,404.508,1153.015,464.335,1181.917,514.136C1210.74,563.799,1273.142,579.555,1330.426,575.591" fill="rgba(150, 163, 108, 0.34)" class="triangle-float1"></path><path d="M1185.798,270.271C1210.044,270.511,1227.363,249.06,1238.521,227.533C1248.666,207.96,1250.95,184.934,1239.928,165.841C1228.905,146.745,1207.845,135.882,1185.798,136.199C1164.296,136.509,1144.868,148.633,1134.302,167.362C1123.919,185.767,1125.392,207.611,1134.849,226.509C1145.587,247.967,1161.804,270.034,1185.798,270.271" fill="rgba(150, 163, 108, 0.34)" class="triangle-float1"></path><path d="M776.138,183.918C801.502,184.214,827.291,177.132,841.456,156.089C857.35,132.477,862.345,101.472,848.299,76.716C834.101,51.692,804.864,39.356,776.138,40.965C749.957,42.432,729.416,61.131,716.743,84.087C704.554,106.165,700.511,132.924,713.405,154.597C726.054,175.858,751.401,183.63,776.138,183.918" fill="rgba(150, 163, 108, 0.34)" class="triangle-float2"></path></g><defs><mask id="SvgjsMask1004"><rect width="1440" height="560" fill="#ffffff"></rect></mask><style>
            @keyframes float1 {
                0%{transform: translate(0, 0)}
                50%{transform: translate(-10px, 0)}
                100%{transform: translate(0, 0)}
            }

            .triangle-float1 {
                animation: float1 5s infinite;
            }

            @keyframes float2 {
                0%{transform: translate(0, 0)}
                50%{transform: translate(-5px, -5px)}
                100%{transform: translate(0, 0)}
            }

            .triangle-float2 {
                animation: float2 4s infinite;
            }

            @keyframes float3 {
                0%{transform: translate(0, 0)}
                50%{transform: translate(0, -10px)}
                100%{transform: translate(0, 0)}
            }

            .triangle-float3 {
                animation: float3 6s infinite;
            }
        </style></defs></svg>